<svg xmlns="http://www.w3.org/2000/svg" width="1600" height="1000" viewBox="0 0 1600 1000" fill="none">
  <defs>
    <linearGradient id="bg" x1="128" y1="80" x2="1490" y2="940" gradientUnits="userSpaceOnUse">
      <stop stop-color="#F4F0E8"/>
      <stop offset="1" stop-color="#D9E8F5"/>
    </linearGradient>
    <linearGradient id="panel" x1="250" y1="170" x2="1320" y2="860" gradientUnits="userSpaceOnUse">
      <stop stop-color="#18212F"/>
      <stop offset="1" stop-color="#0C1420"/>
    </linearGradient>
  </defs>
  <rect width="1600" height="1000" rx="36" fill="url(#bg)"/>
  <rect x="78" y="64" width="1444" height="872" rx="28" fill="#FCFBF7" stroke="#C6D6E6" stroke-width="4"/>
  <rect x="78" y="64" width="1444" height="86" rx="28" fill="#F2F6FA"/>
  <circle cx="124" cy="106" r="12" fill="#EF6B57"/>
  <circle cx="160" cy="106" r="12" fill="#F5C451"/>
  <circle cx="196" cy="106" r="12" fill="#5EC66E"/>
  <rect x="248" y="92" width="460" height="28" rx="14" fill="#DBE8F4"/>
  <rect x="104" y="182" width="232" height="700" rx="20" fill="#EEF4F8"/>
  <rect x="130" y="226" width="176" height="34" rx="12" fill="#DDE9F5"/>
  <rect x="130" y="280" width="148" height="18" rx="9" fill="#B5CADF"/>
  <rect x="130" y="320" width="172" height="18" rx="9" fill="#B5CADF"/>
  <rect x="130" y="360" width="160" height="18" rx="9" fill="#B5CADF"/>
  <rect x="356" y="182" width="1112" height="700" rx="24" fill="url(#panel)"/>
  <rect x="356" y="182" width="1112" height="62" rx="24" fill="#223149"/>
  <rect x="392" y="200" width="180" height="24" rx="12" fill="#315176"/>
  <rect x="602" y="200" width="242" height="24" rx="12" fill="#2A4567"/>
  <rect x="392" y="274" width="250" height="568" fill="#101A28"/>
  <rect x="420" y="308" width="138" height="18" rx="9" fill="#45668F"/>
  <rect x="420" y="348" width="104" height="12" rx="6" fill="#94AAC4"/>
  <rect x="420" y="380" width="128" height="12" rx="6" fill="#94AAC4"/>
  <rect x="678" y="274" width="754" height="568" fill="#0B1320"/>
  <rect x="712" y="314" width="286" height="16" rx="8" fill="#8FB6FF"/>
  <rect x="712" y="354" width="514" height="12" rx="6" fill="#7B95B5"/>
  <rect x="712" y="390" width="470" height="12" rx="6" fill="#7B95B5"/>
  <rect x="712" y="462" width="642" height="260" rx="18" fill="#121F30" stroke="#233B59" stroke-width="2"/>
  <rect x="754" y="516" width="178" height="18" rx="9" fill="#6AD9C3"/>
  <rect x="754" y="558" width="442" height="12" rx="6" fill="#94AAC4"/>
  <rect x="754" y="594" width="510" height="12" rx="6" fill="#94AAC4"/>
  <rect x="754" y="630" width="396" height="12" rx="6" fill="#94AAC4"/>
  <rect x="1162" y="92" width="286" height="30" rx="15" fill="#1F6FEB"/>
  <text x="128" y="830" fill="#18314C" font-family="Verdana, sans-serif" font-size="64" font-weight="700">nVSCode inside Nextcloud</text>
  <text x="128" y="886" fill="#486783" font-family="Verdana, sans-serif" font-size="30">Per-user browser workspaces with Nextcloud file routing and same-origin embedding.</text>
</svg>